<svg xmlns="http://www.w3.org/2000/svg" viewBox="0 0 1200 800" width="1200" height="800"><g transform="translate(417.0 24.0) rotate(0.0 185.0 370.5) translate(6.0 0.0) scale(1.85 1.8525)"><svg width="192.973" height="400" viewBox="3.243 0 192.973 400"><linearGradient id="a" gradientTransform="matrix(.1702 0 0 -.1702 -396.2191 -184.383)" gradientUnits="userSpaceOnUse" x1="2826.748" x2="3018.223" y1="-3296.242" y2="-3296.242"><stop offset="0" stop-color="#a1c3fc"/><stop offset="1" stop-color="#8ab8fd"/></linearGradient><path d="M170.483 400H29.06c-14.49 0-26.237-11.621-26.237-25.953V25.954C2.823 11.62 14.569.001 29.06.001h141.422c14.49 0 26.237 11.62 26.237 25.953v348.094C196.72 388.38 184.972 400 170.483 400z" fill="#c1d7fd"/><ellipse cx="71.914" cy="25.119" fill="#a1c3fc" rx="4.591" ry="4.541"/><path d="M170.483 0h-27.148a145.952 145.952 0 0 0-4.101 2.624c-35.569 23.556-66.161 56.908-78.064 97.58-4.799 16.394-6.46 33.511-10.109 50.193-8.351 38.196-26.96 73.455-48.236 106.401v117.248c0 14.334 11.746 25.953 26.237 25.953h141.422c14.49 0 26.237-11.621 26.237-25.953V25.954C196.72 11.62 184.972 0 170.483 0z" fill="#a1c3fc"/><ellipse cx="101.188" cy="376.637" fill="url(#a)" rx="16.295" ry="16.118"/><path d="m84.382 23.78 32.659-4.031.701 5.556-32.66 4.03z" fill="#a1c3fc"/><path d="M10.503 45.282h178.538v309.834H10.503z" fill="#fff"/><ellipse cx="99.268" cy="374.738" fill="#c1d7fd" rx="12.454" ry="12.32"/><path d="M113.05 24.848H86.213c-.531 0-.96-.425-.96-.949s.429-.949.96-.949h26.837c.531 0 .96.425.96.949s-.43.949-.96.949z" fill="#428dfc"/><ellipse cx="72.028" cy="24.567" fill="#428dfc" rx="3.15" ry="3.116"/><g fill="#A1C3FC"><path d="M0 46.176h3.225v13.757H0zm0 30.307h3.225v24.725H0zm196.775 0H200v24.725h-3.225zM0 108.783h3.225v24.725H0z"/></g><path d="m68.426 18.107 4.448 4.753-4.805 4.401-4.448-4.753z" fill="#fff"/><path d="m65.274 18.622 3.145 3.36-3.397 3.111-3.145-3.36z" fill="#a1c3fc"/></svg></g><g transform="translate(529.0 263.0) rotate(0.0 74.5 64.0) scale(2.275434470541523 2.284449679641627)"><svg width="65.482" height="56.031" viewBox="0 0 65.482 56.031"><path d="M42.318 40.586h-1.184c7.877-3.027 13.478-10.644 13.478-19.588C54.612 9.402 45.211 0 33.613 0S12.614 9.402 12.614 20.999c0 8.943 5.601 16.56 13.478 19.588h-2.928c-10.39 0-19.358 6.396-23.164 15.445h65.482c-3.806-9.049-12.774-15.446-23.164-15.446z" fill="#FFF"/></svg></g><g transform="translate(324.0 173.0) rotate(0.0 136.0 136.0) scale(3.3908891048364427 3.3908891048364427)"><svg width="80.215" height="80.215" viewBox="0 0 80.215 80.215"><path d="M0 0h80.215v80.215H0z" fill="#EEE"/></svg></g><g transform="translate(684.0 424.0) rotate(0.0 83.0 83.5) scale(1.66 1.67)"><svg width="100" height="100" viewBox="0 0 100 100"><path d="M71.074 7.041c-8.311 0-15.798 3.511-21.074 9.123-5.276-5.613-12.763-9.123-21.074-9.123C12.95 7.041 0 19.991 0 35.967 0 60.81 34.617 87.749 50 92.959c16.639-5.973 50-33.42 50-56.992 0-15.976-12.95-28.926-28.926-28.926z" fill="#e94a47"/></svg></g><g transform="translate(632.0 501.0) rotate(0.0 -27.0 27.0) scale(-0.18 0.18)"><svg width="300" height="300" viewBox="0 0 300 300"><g fill="#EEE"><circle cx="160" cy="140" r="140"/><path d="M61.5 143.5 0 300l155.239-64.199z"/></g></svg></g><g transform="translate(70.0 86.0) rotate(0.0 167.5 339.0) scale(1.245353159851301 1.2440366972477064)"><svg width="269" height="545" viewBox="0 0 269 545"><linearGradient id="b"><stop offset="0" stop-color="#23286b"/><stop offset=".645" stop-color="#1a1f59"/><stop offset="1" stop-color="#151a4f"/></linearGradient><linearGradient xmlns:xlink="http://www.w3.org/1999/xlink" id="c" gradientUnits="userSpaceOnUse" x1="136.413" x2="298.428" xlink:href="#b" y1="503.979" y2="569.235"/><linearGradient xmlns:xlink="http://www.w3.org/1999/xlink" id="d" gradientUnits="userSpaceOnUse" x1=".552" x2="185.379" xlink:href="#b" y1="514.731" y2="553.937"/><linearGradient id="e" gradientUnits="userSpaceOnUse" x1="8.667" x2="122.865" y1="335.652" y2="335.652"><stop offset=".129" stop-color="#428dfc"/><stop offset=".999" stop-color="#1d72d8"/></linearGradient><linearGradient id="f" gradientUnits="userSpaceOnUse" x1="64.106" x2="108.964" y1="88.085" y2="250.071"><stop offset="0" stop-color="#23286b"/><stop offset="1" stop-color="#151a4f"/></linearGradient><linearGradient id="g" gradientUnits="userSpaceOnUse" x1="205.589" x2="322.088" y1="230.941" y2="254.587"><stop offset="0" stop-color="#ffbeb6"/><stop offset=".514" stop-color="#f8afa9"/><stop offset="1" stop-color="#f2a19c"/></linearGradient><linearGradient id="h" gradientUnits="userSpaceOnUse" x1="109.262" x2="157.867" y1="109.692" y2="53.473"><stop offset="0" stop-color="#ffbeb6"/><stop offset="1" stop-color="#f2a19c"/></linearGradient><path d="M244.06 525.126c-17.269-7.612-33.525-22.476-36.595-25.35h-34.948l-15.76 45.218 112.243.004c.001.001-5.754-11.415-24.94-19.872z" fill="url(#c)"/><path d="M98.214 525.126c-17.272-7.613-32.635-22.375-35.35-25.244l-36.226-.002-15.726 45.115 112.243.005c0-.001-5.757-11.417-24.941-19.874z" fill="url(#d)"/><path d="m61.386 171.42-3.744 14.285a145.574 145.574 0 0 0-5.673 82.099c14.794 68.547.357 63.837-8.62 83.146-9.014 19.292-13.987 31.15-14.305 50.258-.295 19.124-7.826 13.245-14.603 37.271-5.955 21.208-5.933 54.091-5.705 61.403l54.127.002c12.595-24.136 48.544-126.633 53.47-151.853 4.443-22.794 6.199-49.416 6.282-73.85l.249-74.141z" fill="url(#e)"/><path d="M147.55 499.805c.186-.007.362-.028.553-.028h59.364c-5.57-20.288-31.459-115.441-42.506-149.114-11.07-33.742-28.627-83.519-38.493-106.777-9.826-13.737-9.632-14.003-16.157-21.865-11.73-14.134-23.67-17.11-27.853-34.737-13.228-2.202-30.589-10.048-43.828-16.842-.897 2.22-17.948 46.077 12.689 99.963 31.448 55.3 29.838 46.566 40.893 89.203 11.062 42.652 2.621 15.861 18.294 59.215 11.841 32.751 11.474 58.251 37.044 80.982z" fill="#428dfc"/><path d="M59.225 209.331a.256.256 0 0 0 .328.153l.008-.003a.258.258 0 0 0 .129-.342.256.256 0 0 0-.328-.153l-.008.003a.27.27 0 0 0-.129.342zm5.723-2.419a.256.256 0 0 0 .328.153l.008-.003a.269.269 0 0 0 .146-.346.256.256 0 0 0-.328-.153l-.007.003a.278.278 0 0 0-.147.346zm5.74-2.422a.238.238 0 0 0 .298.159l.02-.007a.269.269 0 0 0 .146-.346.256.256 0 0 0-.328-.153l-.007.003a.247.247 0 0 0-.129.344zm7.053 24.006a.251.251 0 0 0 .333-.138.264.264 0 0 0-.133-.342.252.252 0 0 0-.333.138.26.26 0 0 0 .133.342zm2.382-5.875a.276.276 0 0 0 .35-.14.27.27 0 0 0-.15-.339.239.239 0 0 0-.319.103c-.005.011-.011.023-.013.034a.265.265 0 0 0 .132.342zm2.401-5.877a.252.252 0 0 0 .333-.138.29.29 0 0 0-.135-.359.28.28 0 0 0-.347.158.265.265 0 0 0 .149.339zm21.156 11.684a.256.256 0 0 0 .328.153l.007-.003a.266.266 0 0 0-.189-.497.272.272 0 0 0-.146.347zm-34.847-10.24a.231.231 0 0 0 .325.03l.025-.024a.248.248 0 0 0 .015-.35l-.011-.011a.231.231 0 0 0-.325-.03l-.025.024a.248.248 0 0 0-.015.35c.002.004.007.007.011.011zm4.392-4.484c.074.08.196.094.285.032l.018-.003a.064.064 0 0 0 .05-.025.255.255 0 0 0 .074-.227.299.299 0 0 0-.072-.152.245.245 0 0 0-.347-.008l-.004.004a.268.268 0 0 0-.004.377v.002zm4.394-4.485c.097.092.25.09.343-.007l.007-.007a.246.246 0 0 0 .018-.347l-.013-.013a.231.231 0 0 0-.325-.03l-.025.024a.268.268 0 0 0-.003.377c-.004.003-.002.003-.002.003zm12.922 18.375c.007.143.12.259.264.269a.27.27 0 0 0-.003-.54.284.284 0 0 0-.261.271zm-46.55 2.478a.472.472 0 0 0 .662.071l.028-.025a.497.497 0 0 0 .047-.692.472.472 0 0 0-.662-.071l-.028.025a.501.501 0 0 0-.047.692zm8.858-7.914a.474.474 0 0 0 .666.067l.024-.021a.501.501 0 0 0 .044-.71.466.466 0 0 0-.655-.064l-.019.016a.533.533 0 0 0-.06.712zm8.877-7.917a.488.488 0 0 0 .685.051l.007-.005a.52.52 0 0 0 .044-.71.49.49 0 0 0-.689-.047l-.002.002a.503.503 0 0 0-.045.709zm8.859-7.915a.486.486 0 0 0 .525.124.296.296 0 0 0 .165-.078.46.46 0 0 0 .141-.255l.018-.003a.499.499 0 0 0-.113-.453.472.472 0 0 0-.662-.071l-.028.025a.519.519 0 0 0-.046.711zm8.651 53.999a.499.499 0 0 0 .457.529c.26.025.49-.163.516-.422.002-.009.002-.02.002-.03a.499.499 0 0 0-.457-.529.483.483 0 0 0-.517.449l-.001.003zm.818-12.035a.488.488 0 0 0 .971.088c.002-.009.002-.02.002-.03a.49.49 0 0 0-.44-.533.527.527 0 0 0-.533.475zm.832-12.056a.486.486 0 0 0 .442.528l.015.002c.26.025.49-.163.516-.423.002-.009.002-.02.002-.03a.531.531 0 0 0-.459-.549.499.499 0 0 0-.516.472zm.818-12.035a.488.488 0 0 0 .97.089c.002-.009.002-.02.002-.03a.489.489 0 0 0-.972-.097v.038zm-43.071-14.93a.48.48 0 0 0 .6.315l.02-.007a.5.5 0 0 0 .3-.638.489.489 0 0 0-.616-.31l-.004.002a.5.5 0 0 0-.3.638zm11.142-3.84a.488.488 0 0 0 .605.329.508.508 0 0 0 .3-.638.464.464 0 0 0-.603-.311.484.484 0 0 0-.302.62zm7.149 43.087c.23.124.516.037.64-.192l.013-.028a.506.506 0 0 0-.23-.671.476.476 0 0 0-.643.196l-.012.024a.518.518 0 0 0 .232.671zm5.243-10.807c.23.124.516.037.64-.19l.013-.028a.505.505 0 0 0-.23-.671.476.476 0 0 0-.643.196l-.012.024a.515.515 0 0 0 .232.669zm5.246-10.79a.493.493 0 0 0 .652-.237.517.517 0 0 0-.214-.673.509.509 0 0 0-.671.221.542.542 0 0 0 .233.689zm5.24-10.825c.23.124.516.037.64-.192l.013-.028a.52.52 0 0 0-.214-.673.491.491 0 0 0-.653.237.48.48 0 0 0 .214.656zm28.816 35.765a.486.486 0 1 0 .921-.311.462.462 0 0 0-.558-.342l-.047.013a.536.536 0 0 0-.316.64zm-3.717-11.461a.488.488 0 0 0 .936-.271l-.013-.042a.48.48 0 0 0-.6-.315l-.02.007a.491.491 0 0 0-.303.621zm-3.713-11.444a.464.464 0 0 0 .604.311.499.499 0 0 0 .321-.629l-.004-.012a.489.489 0 0 0-.616-.31l-.004.002a.506.506 0 0 0-.301.638zm-62.098-25.513a.446.446 0 0 0 .078-.335.403.403 0 0 0-.111-.182c.019.159.026.339.033.517zm9.439-2.551a.43.43 0 0 0 .838-.184l-.007-.024a.406.406 0 0 0-.468-.334l-.048.011a.433.433 0 0 0-.318.522c.002.002.002.006.003.009zm5.379 42.059a.427.427 0 0 0 .589-.13c.002-.003.004-.005.005-.009a.439.439 0 0 0-.127-.607l-.007-.004a.417.417 0 0 0-.577.108c-.007.009-.013.02-.019.03a.458.458 0 0 0 .136.612zm5.556-9.139a.429.429 0 0 0 .591-.133l.004-.007a.463.463 0 0 0-.137-.63.435.435 0 0 0-.592.154l-.002.002a.444.444 0 0 0 .133.611l.003.003zm5.38-9.403c.016.11.08.207.176.263a.429.429 0 0 0 .591-.133l.004-.007a.463.463 0 0 0-.137-.63.422.422 0 0 0-.407-.032l-.018.003a.313.313 0 0 0-.17.169.388.388 0 0 0-.039.367zm5.73-8.876a.447.447 0 0 0 .595-.14.48.48 0 0 0-.137-.63.427.427 0 0 0-.589.13c-.002.003-.004.005-.005.009a.462.462 0 0 0 .136.631zm5.555-9.138c.206.12.47.051.592-.154l.002-.002a.457.457 0 0 0-.134-.611.45.45 0 0 0-.612.141.478.478 0 0 0 .152.626zm21.089 43.753a.457.457 0 0 0 .537.338.448.448 0 0 0-.205-.873.469.469 0 0 0-.332.535zm-2.34-10.486a.428.428 0 0 0 .541.275.429.429 0 0 0-.229-.824.458.458 0 0 0-.312.549zm-2.363-10.519a.433.433 0 0 0 .52.342.42.42 0 0 0 .323-.499l-.008-.032a.433.433 0 0 0-.52-.342.452.452 0 0 0-.315.531zm-2.357-10.483a.43.43 0 0 0 .513.323h.003a.443.443 0 0 0 .331-.534.45.45 0 0 0-.518-.34.473.473 0 0 0-.329.551zm-40.632-1.501a.417.417 0 0 0 .579.115l.03-.021a.43.43 0 0 0 .099-.601l-.005-.008a.423.423 0 0 0-.611-.111.465.465 0 0 0-.092.626zm8.537-6.263a.422.422 0 0 0 .586.119l.008-.005a.46.46 0 0 0 .108-.629.448.448 0 0 0-.611-.111.454.454 0 0 0-.091.626zm8.519-6.262a.432.432 0 0 0 .6.119l.012-.008a.48.48 0 0 0 .108-.629.427.427 0 0 0-.593-.106l-.016.012a.436.436 0 0 0-.113.607l.002.005zm8.164 40.599a.45.45 0 0 0 .366.507.43.43 0 0 0 .495-.354c0-.002 0-.003.002-.005a.469.469 0 0 0-.351-.527.451.451 0 0 0-.512.379zm1.742-10.634a.43.43 0 0 0 .332.507.431.431 0 0 0 .508-.331l.004-.024a.469.469 0 0 0-.351-.527.438.438 0 0 0-.493.375zm1.725-10.633a.441.441 0 0 0 .35.51.44.44 0 0 0 .145-.867.418.418 0 0 0-.49.327l-.005.03zm1.726-10.631a.441.441 0 0 0 .35.51.412.412 0 0 0 .371-.107l.018-.003a.512.512 0 0 0 .124-.252.45.45 0 0 0-.366-.507.43.43 0 0 0-.495.354c-.002.002-.002.003-.002.005zm34.044 23.283a.405.405 0 0 0 .557.122l.035-.025a.451.451 0 0 0 .108-.629.438.438 0 0 0-.609-.094.447.447 0 0 0-.091.626c-.002 0 0 0 0 0zm-6.091-8.779a.44.44 0 0 0 .608.114l.003-.003a.453.453 0 0 0 .091-.626.422.422 0 0 0-.586-.119l-.008.005a.447.447 0 0 0-.113.622l.005.007zm-53.3-11.6a.261.261 0 0 0 .366-.016.28.28 0 0 0-.016-.377.261.261 0 0 0-.366.016.283.283 0 0 0 .016.377zm4.214-4.638a.264.264 0 0 0 .366-.016.283.283 0 0 0-.016-.377.261.261 0 0 0-.366.016.284.284 0 0 0 .016.377zm4.231-4.659a.243.243 0 0 0 .348-.014.248.248 0 0 0 .008-.354l-.024-.023a.243.243 0 0 0-.343.007l-.007.007a.253.253 0 0 0-.005.358.466.466 0 0 0 .023.019zm4.214-4.64a.243.243 0 0 0 .348-.014.268.268 0 0 0 .002-.379.265.265 0 0 0-.366.016.282.282 0 0 0 .016.377zm11.635 23.138a.254.254 0 0 0 .506-.032.255.255 0 0 0-.261-.236.257.257 0 0 0-.245.267v.001zm-.224-6.352a.27.27 0 0 0 .279.249.257.257 0 0 0 .245-.269.248.248 0 0 0-.241-.252h-.02a.266.266 0 0 0-.263.265zm-.206-6.353a.253.253 0 0 0 .506-.002v-.015a.248.248 0 0 0-.241-.252h-.02a.257.257 0 0 0-.245.269zm-.208-6.354.009.071a.28.28 0 0 0 .253.181.257.257 0 0 0 .245-.269.277.277 0 0 0-.173-.245l-.018.003a.102.102 0 0 0-.071-.008.247.247 0 0 0-.245.251zm-28.661-3.097a.26.26 0 0 0 .334.133.286.286 0 0 0 .126-.361.246.246 0 0 0-.318-.14l-.016.007a.288.288 0 0 0-.126.361zm5.624-2.639a.255.255 0 0 0 .468-.199l-.005-.011a.235.235 0 0 0-.333-.133.259.259 0 0 0-.13.343c0-.001 0-.001 0 0zm11.674 19.525a.273.273 0 0 0 .33-.156.258.258 0 0 0-.143-.336l-.007-.003a.243.243 0 0 0-.33.156.268.268 0 0 0 .15.339zm2.179-5.954a.262.262 0 0 0 .179-.493.243.243 0 0 0-.332.138.269.269 0 0 0 .143.352c.004 0 .008.001.01.003zm2.16-5.97a.243.243 0 0 0 .33-.155.27.27 0 0 0-.15-.339.273.273 0 0 0-.33.156.258.258 0 0 0 .143.336l.007.002zm19.172 11.137c.05.126.193.189.319.14.005-.002.011-.004.015-.007a.258.258 0 0 0 .129-.342v-.002a.235.235 0 0 0-.333-.133.26.26 0 0 0-.13.344zm-2.566-5.783c.06.133.217.19.348.131.002 0 .002 0 .002-.002a.255.255 0 0 0 .111-.34.235.235 0 0 0-.333-.133.26.26 0 0 0-.128.344zm-47.883-17.852a.29.29 0 0 0 .344.221h.002a.315.315 0 0 0 .233-.358.297.297 0 0 0-.355-.221l-.008.002a.288.288 0 0 0-.216.356zm10.233 26.799a.273.273 0 0 0 .38-.075l.011-.018a.3.3 0 0 0-.082-.414l-.009-.005a.273.273 0 0 0-.38.075l-.011.018a.313.313 0 0 0 .091.419zm3.789-6.111c.137.087.32.046.406-.091 0-.002.002-.002.002-.003a.316.316 0 0 0-.091-.42.273.273 0 0 0-.38.075l-.011.018a.297.297 0 0 0 .064.416l.01.005zm3.806-6.113c.124.072.281.05.378-.053.015-.02.032-.023.03-.04a.314.314 0 0 0-.091-.42.294.294 0 0 0-.406.091c0 .002-.002.002-.002.003a.314.314 0 0 0 .091.419zm3.807-6.114c.137.087.32.046.406-.091 0-.002.002-.002.002-.003a.316.316 0 0 0-.091-.42.264.264 0 0 0-.283-.013c-.035.005-.05.025-.066.028l-.059.08a.31.31 0 0 0 .091.419zm17.715 23.515a.27.27 0 0 0 .344.221.298.298 0 0 0 .215-.356.319.319 0 0 0-.348-.239.31.31 0 0 0-.211.374zm-1.531-7.083a.297.297 0 0 0 .355.221l.008-.002a.298.298 0 0 0 .215-.356.319.319 0 0 0-.348-.239.333.333 0 0 0-.23.376zm-1.499-7.108a.274.274 0 0 0 .346.239.298.298 0 0 0 .215-.356.319.319 0 0 0-.348-.239.3.3 0 0 0-.213.356zm-1.516-7.088a.274.274 0 0 0 .346.239.298.298 0 0 0 .215-.356.306.306 0 0 0-.348-.239.301.301 0 0 0-.213.356zm-32.613 2.732a.286.286 0 0 0 .413.084.326.326 0 0 0 .066-.424.286.286 0 0 0-.395-.08l-.018.012a.305.305 0 0 0-.066.408zm5.791-4.142c.086.127.26.161.389.075l.007-.005a.304.304 0 0 0 .085-.424c0-.002-.002-.002-.002-.003a.296.296 0 0 0-.411-.069l-.002.002a.315.315 0 0 0-.066.424zm5.787-4.16c.075.126.24.166.366.091l.03-.021a.291.291 0 0 0 .09-.401l-.005-.007a.307.307 0 0 0-.414-.086.326.326 0 0 0-.067.424zm11.128 23.534a.362.362 0 0 0 .113.056.288.288 0 0 0 .334-.232c.002-.004.002-.009.003-.014a.308.308 0 0 0-.222-.347l-.018.003a.288.288 0 0 0-.334.232c-.002.004-.002.009-.003.014a.274.274 0 0 0 .127.288zm1.118-7.443a.29.29 0 0 0 .222.347.31.31 0 0 0 .355-.23.328.328 0 0 0-.242-.362.293.293 0 0 0-.335.245c0-.001 0-.001 0 0zm1.232-7.136a.293.293 0 0 0 .234.343l.005.002a.288.288 0 0 0 .334-.232c.002-.004.002-.009.003-.013a.292.292 0 0 0-.234-.343c-.002 0-.004 0-.005-.002a.288.288 0 0 0-.334.232l-.003.013zm1.229-7.153a.3.3 0 0 0 .24.345.273.273 0 0 0 .331-.195l.007-.034a.29.29 0 0 0-.222-.347.295.295 0 0 0-.353.224c-.002.001-.003.004-.003.007zm22.762 15.927a.285.285 0 0 0 .412.067.3.3 0 0 0 .069-.406.273.273 0 0 0-.396-.089.317.317 0 0 0-.085.428zm-4.026-5.954c.075.126.24.166.366.091l.03-.021a.291.291 0 0 0 .09-.401l-.005-.008a.297.297 0 0 0-.408-.09l-.005.004a.306.306 0 0 0-.068.425zm-4.046-5.951a.281.281 0 0 0 .412.068.3.3 0 0 0 .069-.406.286.286 0 0 0-.413-.084.323.323 0 0 0-.068.422zm-43.451-1.21a.481.481 0 0 0 .669.119l.027-.02a.516.516 0 0 0 .114-.72.498.498 0 0 0-.692-.122l-.007.004a.557.557 0 0 0-.111.739zm9.777-7.34c.15.223.453.283.676.133l.023-.016a.515.515 0 0 0 .113-.72.498.498 0 0 0-.692-.122l-.007.004a.54.54 0 0 0-.113.721zm4.256 56.246a.53.53 0 0 0 .43.587.504.504 0 0 0 .575-.421v-.003a.524.524 0 0 0-.43-.587.504.504 0 0 0-.575.421zm1.887-12.296a.509.509 0 0 0 .408.59h.004a.496.496 0 0 0 .572-.407c.002-.005.002-.011.003-.018a.5.5 0 0 0-.981-.196c-.004.013-.005.022-.006.031zm1.87-12.292a.527.527 0 0 0 .43.589.504.504 0 0 0 .575-.421v-.003a.508.508 0 0 0-.418-.586l-.012-.002a.504.504 0 0 0-.575.421zm1.886-12.295a.514.514 0 0 0 .413.59.515.515 0 0 0 .162-1.015.498.498 0 0 0-.572.407c-.002.005-.002.012-.003.018zm1.871-12.294a.524.524 0 0 0 .43.587.48.48 0 0 0 .553-.39l.004-.031a.488.488 0 0 0-.368-.583l-.043-.008a.504.504 0 0 0-.575.421l-.001.004zm42.096 37.267a.507.507 0 0 0 .706.122.503.503 0 0 0 .106-.725.484.484 0 0 0-.7-.117.538.538 0 0 0-.112.72zm-7.122-10.058a.504.504 0 0 0 .699.117.52.52 0 0 0 .113-.719.484.484 0 0 0-.701-.117.533.533 0 0 0-.111.719zm-7.121-10.058a.498.498 0 0 0 .692.122l.007-.004c.222-.181.27-.5.111-.738a.482.482 0 0 0-.67-.119l-.027.02a.516.516 0 0 0-.113.719zm-7.122-10.059a.498.498 0 0 0 .692.122l.007-.004a.558.558 0 0 0 .111-.738.483.483 0 0 0-.671-.119l-.027.02a.5.5 0 0 0-.127.699l.015.02zm-41.799-19.546a.478.478 0 0 0 .564.373l.03-.007a.506.506 0 0 0 .374-.611.518.518 0 0 0-.612-.382.51.51 0 0 0-.356.627zm4.505 26.568c.24.143.552.067.696-.172a.539.539 0 0 0-.166-.716.506.506 0 0 0-.695.169s0 .002-.002.002a.542.542 0 0 0 .167.717zm6.301-10.634a.49.49 0 0 0 .68-.125l.019-.028a.539.539 0 0 0-.166-.716.492.492 0 0 0-.695.171.516.516 0 0 0 .162.698zm26.543 39.336c.072.267.34.433.612.382a.52.52 0 0 0 .353-.628.492.492 0 0 0-.596-.384.521.521 0 0 0-.369.63zm-2.84-12.11a.498.498 0 0 0 .977-.198l-.007-.031a.48.48 0 0 0-.554-.393c-.013.003-.027.005-.04.009a.495.495 0 0 0-.379.589c-.001.009.002.015.003.024zm-2.837-12.092a.492.492 0 0 0 .596.384.52.52 0 0 0 .371-.63.503.503 0 0 0-.596-.384.523.523 0 0 0-.371.63zm-2.836-12.092a.478.478 0 0 0 .564.373l.03-.007a.508.508 0 0 0 .371-.619.512.512 0 0 0-.593-.377.52.52 0 0 0-.372.63zm-28.228-.527c.233.146.54.087.701-.135a.542.542 0 0 0-.149-.719.471.471 0 0 0-.683.134.519.519 0 0 0 .131.72zm6.714-10.296c.236.149.548.08.698-.153a.518.518 0 0 0-.146-.7.47.47 0 0 0-.657.094c-.009.014-.019.025-.027.04a.52.52 0 0 0 .132.719zm22.693 51.118a.502.502 0 0 0 .581.405.512.512 0 0 0 .392-.597.507.507 0 0 0-.577-.423c-.002 0-.004 0-.005.002a.517.517 0 0 0-.391.613zm-2.337-12.164a.507.507 0 0 0 .591.404l.008-.002a.518.518 0 0 0-.207-1.016.529.529 0 0 0-.392.614zm-2.339-12.163a.507.507 0 0 0 .591.404l.007-.002a.512.512 0 0 0 .392-.597.5.5 0 0 0-.581-.404.531.531 0 0 0-.409.599zm-2.321-12.165a.483.483 0 0 0 .581.405.512.512 0 0 0 .392-.597.49.49 0 0 0-.581-.403.503.503 0 0 0-.392.595zm-2.338-12.162a.49.49 0 0 0 .561.407l.019-.004a.277.277 0 0 0 .147-.075c.018-.003.032-.023.066-.028a.508.508 0 0 0-.401-.898.503.503 0 0 0-.394.593c.002.002.002.003.002.005zM40.295 232.96a.505.505 0 0 0 .992.201.524.524 0 0 0-.398-.61.52.52 0 0 0-.594.409zm2.378-12.167a.511.511 0 0 0 .39.609l.008.002a.5.5 0 0 0 .577-.406.532.532 0 0 0-.398-.61.493.493 0 0 0-.575.396l-.002.009zm2.363-12.147a.507.507 0 0 0 .395.593.495.495 0 0 0 .592-.372l.004-.02a.524.524 0 0 0-.398-.61.511.511 0 0 0-.593.409zm38.297 28.052a.5.5 0 0 0 .691.141l.011-.007a.517.517 0 0 0 .133-.704.48.48 0 0 0-.652-.177l-.035.021a.527.527 0 0 0-.148.726zm-6.684-10.319a.5.5 0 0 0 .691.141l.011-.007a.517.517 0 0 0 .133-.704.48.48 0 0 0-.652-.177l-.035.021a.528.528 0 0 0-.148.726zm-6.683-10.318a.5.5 0 0 0 .691.141l.011-.007a.517.517 0 0 0 .133-.704.493.493 0 0 0-.676-.161l-.011.007a.523.523 0 0 0-.148.724zm-6.683-10.319c.156.23.469.291.701.135l.002-.002a.517.517 0 0 0 .133-.704.507.507 0 0 0-.687-.154.53.53 0 0 0-.149.725zm-27.939-.458a.384.384 0 0 0 .497-.214.403.403 0 0 0-.209-.511.365.365 0 0 0-.474.198l-.005.015a.4.4 0 0 0 .191.512zm3.389-8.687a.364.364 0 0 0 .479-.213.392.392 0 0 0-.209-.511.361.361 0 0 0-.477.229.37.37 0 0 0 .194.488c.004.004.008.005.013.007zm24.533 34.031a.369.369 0 0 0 .477.209l.023-.009a.392.392 0 0 0 .197-.496.357.357 0 0 0-.5-.199.386.386 0 0 0-.197.495zm-3.574-8.579a.384.384 0 0 0 .5.2.403.403 0 0 0 .194-.515.369.369 0 0 0-.477-.209l-.023.009a.4.4 0 0 0-.194.515zm-3.577-8.597a.384.384 0 0 0 .5.2.403.403 0 0 0 .194-.515.384.384 0 0 0-.5-.2.403.403 0 0 0-.194.515zm-3.577-8.596a.36.36 0 0 0 .461.211l.023-.009a.388.388 0 1 0-.484-.202zm-20.99-8.626a.37.37 0 0 0 .002-.379c-.009.127-.01.254-.002.379zm12.446 33.464a.386.386 0 0 0 .385.378.4.4 0 0 0 .367-.396.378.378 0 0 0-.379-.378h-.004a.367.367 0 0 0-.368.369.049.049 0 0 0-.001.027zm-.12-9.361a.407.407 0 0 0 .386.396.379.379 0 0 0 .367-.393v-.003a.367.367 0 0 0-.352-.381h-.013a.38.38 0 0 0-.387.373l-.001.008zm-.1-9.343c-.002.208.165.377.374.379s.378-.165.38-.373v-.005a.407.407 0 0 0-.386-.396.379.379 0 0 0-.367.393l-.001.002zm-.117-9.341c0 .209.169.378.379.378h.004a.367.367 0 0 0 .368-.369c0-.009 0-.018-.002-.027a.373.373 0 0 0-.366-.381h-.002a.406.406 0 0 0-.381.399zm32.528 14.501a.36.36 0 0 0 .505.018l.02-.02a.387.387 0 0 0 .005-.549l-.009-.009a.354.354 0 0 0-.502-.002l-.02.021a.381.381 0 0 0 .001.541zm-6.506-6.522c.15.142.389.137.531-.012l.009-.011a.399.399 0 0 0-.003-.54.397.397 0 0 0-.544.005.426.426 0 0 0 .007.558zm-6.49-6.541a.36.36 0 0 0 .505.018l.02-.02a.399.399 0 0 0-.003-.54.362.362 0 0 0-.513-.024c-.011.009-.02.019-.03.03a.378.378 0 0 0 .021.536zm-21.478 5.996a.21.21 0 0 0 .236.182.23.23 0 0 0 .174-.259.226.226 0 0 0-.25-.162.215.215 0 0 0-.16.239zm-.85-5.018a.197.197 0 0 0 .225.166l.008-.002a.19.19 0 0 0 .165-.214l-.005-.025a.202.202 0 0 0-.217-.185c-.007 0-.012.002-.019.003a.231.231 0 0 0-.157.257zm-.854-5.035a.2.2 0 0 0 .217.185l.018-.003a.218.218 0 0 0 .158-.257.198.198 0 0 0-.225-.166l-.008.002a.201.201 0 0 0-.16.239zm-7.481 2.002a.212.212 0 0 0 .156.248c.115.02.228-.05.258-.163a.212.212 0 0 0-.156-.248.237.237 0 0 0-.258.163zm1.083-4.987a.212.212 0 0 0 .156.248.204.204 0 0 0 .253-.137c.003-.008.004-.018.005-.025a.212.212 0 0 0-.156-.248.236.236 0 0 0-.258.162zm16.607 6.923a.196.196 0 0 0 .266.074l.007-.004a.218.218 0 0 0 .064-.297.193.193 0 0 0-.261-.076l-.012.007a.216.216 0 0 0-.064.296zm-2.667-4.308c.058.098.185.13.281.072l.008-.005a.235.235 0 0 0 .064-.297.211.211 0 0 0-.292-.066.21.21 0 0 0-.066.291l.005.005zm-.03 18.667a.332.332 0 0 0 .457.103l.011-.008a.323.323 0 0 0 .107-.446l-.012-.018a.31.31 0 0 0-.419-.135c-.012.005-.023.014-.034.02a.345.345 0 0 0-.11.484zm-4.365-7.168a.31.31 0 0 0 .419.135c.012-.005.023-.013.034-.02a.346.346 0 0 0 .115-.476c-.002-.003-.004-.005-.005-.009a.338.338 0 0 0-.463-.118l-.007.004a.344.344 0 0 0-.095.478c-.001.002.001.003.002.006zm-4.382-7.148a.344.344 0 0 0 .47.113.35.35 0 0 0 .11-.484.338.338 0 0 0-.463-.118l-.007.004a.368.368 0 0 0-.11.485zm-4.362-7.151a.36.36 0 0 0 .47.113.373.373 0 0 0 .11-.484.33.33 0 0 0-.47-.113.358.358 0 0 0-.11.484zm22.4 6.602c.143.11.351.083.461-.062.007-.008.012-.016.018-.025a.344.344 0 0 0-.082-.474.325.325 0 0 0-.463.065.367.367 0 0 0 .066.496z" fill="#fff" opacity=".86"/><path d="M150.074 81.497 78.332 204.129C52.006 202.512.952 177.053.952 177.053c-5.677-30.783 15.24-42.288 31.159-52.322s16.468-22.459 44.724-38.686a251.484 251.484 0 0 1 56.641-23.367c6.728 20.739 16.598 18.819 16.598 18.819z" fill="url(#f)"/><path d="M171.568 216.696s14.934 10.352 27.059 14.331c12.125 3.978 13.056 3.001 17.642-2.254a106.761 106.761 0 0 0 11.075-15.964c1.351-2.619 5.477-2.733 4.597 4.051-.88 6.783-9.893 10.666-6.17 14.13 3.724 3.464 16.688 4.157 26.382 3.618s14.98-.516 6.55 11.774c-8.429 12.29-18.642 19.536-45.893 7.961s-46.495-9.522-56.066-8.585z" fill="url(#g)"/><path d="M149.553 81.561s-11.322 36.637-10.972 61.422 4.869 29.028 24.375 36.253c19.507 7.226 24.007 7.529 24.007 7.529l-20.503 78.382s-21.342 3.609-36.522-13.801-21.127-21.893-31.762-26.001-31.999-19.541-24.53-56.594c7.469-37.052 22.839-69.885 59.834-106.073" fill="#23286b"/><path d="M163.338 57.803s-11.717 12.53-13.268 23.691c0 0-9.868 1.922-16.59-18.816a71.77 71.77 0 0 0 12.89-14.446z" fill="url(#h)"/><path d="M194.849 48.82c1.238 5.966 2.636 9.976-7.355 9.372 0 0-19.605 22.66-41.509-3.634 0 0-.43-.617-1.102-1.689a11.685 11.685 0 0 0 4.666 2.253s4.733-6.356.174-10.432c-4.558-4.076-7.624-9.855-2.313-13.69 5.325-3.835 6.131 3.392 11.994 2.547 5.877-.844 12.693-8.045 12.693-8.045a48.177 48.177 0 0 0 15.261 7.83 26.677 26.677 0 0 0 8.364 1.904l.08.161c.002.001-2.177 7.456-.953 13.423z" fill="#ffbeb6"/><path d="M223.103 15.656a27.418 27.418 0 0 1-19.865 18.023c7.394-2.183 14.746-8.315 20.322-21.69L130.966 0s-5.492 14.269-1.59 29.198 15.243 25.209 20.175 25.927c0 0 4.73-6.359.173-10.437s-7.633-9.855-2.315-13.686 6.13 3.394 11.998 2.545 12.695-8.045 12.695-8.045a48.237 48.237 0 0 0 15.261 7.833c14.172 5.736 31.038-1.321 36.71-17.414.217-.61-.757-.873-.97-.265z" fill="#23286b"/><path d="M203.386 48.941c2.296-3.332 2.431-7.845.307-10.067v-.002c-2.128-2.216-5.728-1.31-8.024 2.022-.265.388-.504.794-.714 1.214a5.528 5.528 0 0 0-5.03-.237c.025-.24.072-.48.08-.72a7.3 7.3 0 0 0-1.741-5.409c-2.462-2.565-6.631-1.507-9.293 2.356a11.977 11.977 0 0 0-2.109 6.251 7.96 7.96 0 0 0 1.042 4.503c.201.326.435.629.699.906a4.545 4.545 0 0 0 4.624 1.227 8.559 8.559 0 0 0 4.668-3.582 12.113 12.113 0 0 0 1.839-4.296c1.506-.535 3.382-1.018 4.778.02-.034.09-.058.181-.089.272a.646.646 0 0 1-.05.31l-.013.032c-.002.013.003.023.002.036a12.029 12.029 0 0 0 .044 4.277c.147.605.336 1.193.525 1.782.052.131.086.275.13.41.06.188.12.374.178.563.042.051.074.108.119.156 2.133 2.214 5.733 1.307 8.028-2.024zm-16.19-2.271a7.617 7.617 0 0 1-4.14 3.194 3.77 3.77 0 0 1-3.842-.989 6.061 6.061 0 0 1-1.424-4.499 10.627 10.627 0 0 1 1.881-5.546c2.328-3.379 5.909-4.367 7.982-2.204.214.223.402.468.564.729a6.66 6.66 0 0 1 .86 3.769 10.612 10.612 0 0 1-1.881 5.546zm8.775 3.409c-1.744-1.821-1.562-5.606.398-8.45 1.961-2.845 4.972-3.685 6.713-1.871 1.747 1.819 1.562 5.609-.398 8.451-1.959 2.845-4.971 3.684-6.713 1.87z" fill="#3e8af8"/></svg></g><g transform="translate(466.0 478.0) rotate(0.0 23.5 39.0) translate(0.0 21.0) scale(0.22804463852498788 0.23430459597476722)"><svg width="206.1" height="234.737" viewBox="0 89.627 206.1 234.737"><path d="m201 327.9-98-83-98 83V5h196z" fill="#EEE"/><path d="M201 332.9c-1.2 0-2.3-.4-3.2-1.2L103 251.5 8.2 331.7c-1.5 1.3-3.6 1.5-5.3.7-1.8-.8-2.9-2.6-2.9-4.5V5c0-2.8 2.2-5 5-5h196.1c2.8 0 5 2.2 5 5v322.9c0 1.9-1.1 3.7-2.9 4.5-.7.3-1.4.5-2.2.5zm-98-93c1.1 0 2.3.4 3.2 1.2l89.8 76V10H10v307.1l89.8-76c.9-.8 2.1-1.2 3.2-1.2z" fill="#EEE"/></svg></g><g transform="translate(403.0 252.0) rotate(0.0 77.0 63.5) scale(0.23223549282181205 0.23184913376051994)"><svg width="663.12" height="547.77" viewBox="0 0 663.12 547.77"><path d="M663.12 547.77H0L331.56 0z" fill="#CCC"/></svg></g><g transform="translate(374.0 223.0) rotate(0.0 24.5 24.5) scale(0.49 0.49)"><svg width="100" height="100" viewBox="0 0 100 100"><circle cx="50" cy="50" fill="#DDD" r="50"/></svg></g><g transform="translate(760.0 120.0) rotate(0.0 178.5 321.0) scale(1.5588702775400416 1.5620133914668328)"><svg width="229.012" height="411.008" viewBox="0 0 229.012 411.008"><linearGradient id="j" gradientUnits="userSpaceOnUse" x1="83.458" x2="171.749" y1="393.598" y2="393.598"><stop offset=".129" stop-color="#428dfc"/><stop offset=".999" stop-color="#1d72d8"/></linearGradient><linearGradient id="k" gradientUnits="userSpaceOnUse" x1="69.242" x2="154.866" y1="347.15" y2="242.219"><stop offset="0" stop-color="#23286b"/><stop offset=".432" stop-color="#1d225f"/><stop offset="1" stop-color="#151a4f"/></linearGradient><linearGradient id="i"><stop offset="0" stop-color="#ffbeb6"/><stop offset=".033" stop-color="#febdb5"/><stop offset=".612" stop-color="#f5a8a3"/><stop offset="1" stop-color="#f2a19c"/></linearGradient><linearGradient xmlns:xlink="http://www.w3.org/1999/xlink" id="l" gradientUnits="userSpaceOnUse" x1="27.73" x2="113.116" xlink:href="#i" y1="228.849" y2="176.245"/><linearGradient id="m" gradientUnits="userSpaceOnUse" x1="123.56" x2="134.212" y1="83.146" y2="200.309"><stop offset="0" stop-color="#a1c3fc"/><stop offset=".696" stop-color="#81aef2"/><stop offset="1" stop-color="#78a9ef"/></linearGradient><linearGradient xmlns:xlink="http://www.w3.org/1999/xlink" id="n" gradientUnits="userSpaceOnUse" x1="69.136" x2="50.465" xlink:href="#i" y1="81.738" y2="55.712"/><path d="M132.196 376.189c-.062.058-14.061 13.165-29.119 19.618-15.091 6.468-19.619 15.2-19.619 15.2l88.291-.003-12.423-34.815z" fill="url(#j)"/><path d="M189.352 376.155c-1.528 1.421-14.816 13.569-29.012 19.653-15.091 6.468-19.619 15.2-19.619 15.2l88.291-.003-12.389-34.85z" fill="#428dfc"/><path d="M139.127 161.137c-6.966 4.924-17.166 6.199-17.166 6.199l-18.189-1.937-2.403 31.121c-.737 18.009-3.573 40.4-.214 61.409 3.582 22.39 24.891 86.962 31.04 118.26h27.131c9.143-19.494 7.338-36.188 3.625-65.192-4.483-35.031 2.87-24.815-4.636-57.607-7.497-32.794-5.492-26.321-3.077-75.372.784-15.868 3.032-17.801-.446-27.259" fill="url(#k)"/><path d="M114.03 206.782c1.438 19.108 4.345 39.831 9.197 57.404 5.171 18.694 52.486 90.353 66.124 111.969h27.272c-.252-6.133-.447-31.056-6.353-47.101-6.8-18.402-12.529-13.369-13.839-28.311-1.328-14.928-5.994-23.916-14.327-38.486-8.304-14.586-19.654-10.068-11.599-64.54a111.198 111.198 0 0 0-9.17-63.891c-1.124.465-2.339.946-3.628 1.437l-.106-.88s-2.237 1.15-5.728 2.965c-1.095.368-2.23.738-3.416 1.109-.051.258-.11.506-.166.757-14.089 7.357-39.051 20.591-37.562 21.243 2.064.907 3.301 46.325 3.301 46.325" fill="#23286b"/><path d="M89.782 170.473s-15.528 25.48-30.474 38.047-19.106 12.648-30.627 8.71-14.759-4.603-14.759-4.603-4.157 5.595 4.734 8.023 9.893 5.842 2.262 9.32S.435 235.986.063 238.282s.827 5.082 5.791 3.529 14.382-4.129 13.362-3.069-15.795 5.066-15.343 6.93 16.277 14.381 26.83 5.956 15.943-20.181 23.162-23.443 46.89-17.765 57.088-28.367z" fill="url(#l)"/><path d="M160.737 167.523a.172.172 0 0 0-.222.096.165.165 0 0 0 .085.22.172.172 0 0 0 .137-.316zm-3.794-1.557a.171.171 0 1 0 .097.222.178.178 0 0 0-.097-.222zm-3.784-1.555a.171.171 0 1 0-.128.318l.003.001a.158.158 0 0 0 .207-.089l.003-.009a.158.158 0 0 0-.085-.221zm-4.488 15.43a.167.167 0 1 0-.309.132.167.167 0 0 0 .309-.132zm-1.575-3.776a.159.159 0 0 0-.22-.088.17.17 0 0 0-.1.218.184.184 0 0 0 .231.09.167.167 0 0 0 .089-.22zm-1.575-3.776a.187.187 0 0 0-.229-.101.184.184 0 0 0-.09.231.166.166 0 0 0 .219.088.17.17 0 0 0 .1-.218zm-1.585-3.789a.166.166 0 0 0-.219-.088.18.18 0 0 0-.09.231.166.166 0 0 0 .219.088.18.18 0 0 0 .09-.231zm10.533 4.703a.164.164 0 1 0 .003.232.156.156 0 0 0 .009-.221l-.012-.011zm-2.902-2.893a.165.165 0 0 0-.232.003.182.182 0 0 0-.048.098.165.165 0 0 0 .049.146c.008.01.02.016.032.016l.011.002c.059.04.139.031.188-.02a.168.168 0 0 0 .005-.237c-.001-.004-.003-.006-.005-.008zm-2.904-2.882a.164.164 0 0 0-.229.235c.061.066.164.07.231.009a.168.168 0 0 0 .005-.237l-.007-.007zm-2.903-2.894a.165.165 0 0 0-.232.003.168.168 0 0 0-.005.237l.006.006a.156.156 0 0 0 .221.009l.012-.012a.168.168 0 0 0-.002-.243zm-5.811 14.772a.175.175 0 0 0-.175.173c0 .096.077.174.173.175a.175.175 0 0 0 .175-.173.175.175 0 0 0-.173-.175zm30.911 1.323a.317.317 0 0 0-.448.021l-.008.009a.315.315 0 0 0 .029.443l.002.002c.13.118.33.109.448-.021l.008-.009a.315.315 0 0 0-.031-.445zm-5.865-5.1a.315.315 0 0 0-.443.029l-.002.002a.322.322 0 0 0 .03.456.322.322 0 0 0 .456-.03.331.331 0 0 0-.041-.457zm-5.856-5.087a.323.323 0 1 0 .03.456.317.317 0 0 0-.021-.448l-.009-.008zm-5.855-5.087a.317.317 0 0 0-.448.021l-.008.009a.314.314 0 0 0-.075.291l.011.002a.295.295 0 0 0 .093.164c.03.028.068.045.109.05a.315.315 0 0 0 .318-.537zm-6.032 34.872a.325.325 0 0 0-.302.341c.009.17.154.301.325.292l.017-.001a.325.325 0 0 0 .302-.341.317.317 0 0 0-.342-.291zm-.55-7.748a.317.317 0 0 0-.291.342.321.321 0 1 0 .643-.033v-.006a.342.342 0 0 0-.352-.303zm-.539-7.747a.343.343 0 0 0-.304.352.31.31 0 0 0 .325.292l.017-.001a.316.316 0 0 0 .303-.329l-.001-.011a.324.324 0 0 0-.34-.303zm-.551-7.737a.317.317 0 0 0-.291.342v.001a.322.322 0 1 0 .299-.343h-.008zm-.539-7.746a.324.324 0 0 0 .05.645.309.309 0 0 0 .292-.325l-.001-.017a.326.326 0 0 0-.341-.303zm21.796-4.412a.308.308 0 0 0-.394.185l-.005.015a.315.315 0 1 0 .598.198.308.308 0 0 0-.185-.394l-.014-.004zm-7.354-2.467a.317.317 0 0 0-.406.194l-.005.016a.312.312 0 0 0 .196.397l.004.001a.32.32 0 0 0 .408-.193l.002-.006a.325.325 0 0 0-.199-.409zm2.981 30.128a.327.327 0 1 0-.158.434l.006-.003a.328.328 0 0 0 .152-.431zm-3.466-6.947a.327.327 0 1 0-.158.434l.006-.003a.328.328 0 0 0 .152-.431zm-3.466-6.946a.342.342 0 0 0-.444-.143.326.326 0 0 0 .29.585.342.342 0 0 0 .154-.442zm-3.478-6.937a.317.317 0 1 0-.578.266l.007.014a.317.317 0 0 0 .424.145l.009-.004a.303.303 0 0 0 .148-.403l-.01-.018zm-3.466-6.947a.319.319 0 0 0-.572.28.33.33 0 0 0 .431.152.318.318 0 0 0 .144-.427l-.003-.005zm-15.931 29.944a.308.308 0 0 0-.4.212.312.312 0 0 0 .196.397l.004.001a.325.325 0 0 0 .41-.198.343.343 0 0 0-.21-.412zm2.467-7.353a.32.32 0 0 0-.408.193l-.002.006a.325.325 0 0 0 .198.41.342.342 0 0 0 .411-.21.312.312 0 0 0-.196-.397c-.001-.002-.002-.002-.003-.002zm33.995 1.645a.285.285 0 0 0-.485.301l.002.003a.285.285 0 0 0 .483-.304zm-3.672-5.874a.285.285 0 1 0-.089.393.28.28 0 0 0 .096-.383l-.007-.01zm-3.67-5.886a.2.2 0 0 0-.113-.108l-.011-.002a.29.29 0 0 0-.361.423l.002.003c.085.132.26.171.393.089a.238.238 0 0 0 .116-.169.251.251 0 0 0-.026-.236zm-3.672-5.874a.287.287 0 0 0-.393-.089.29.29 0 0 0 .303.494.29.29 0 0 0 .09-.405zm-3.661-5.872a.304.304 0 0 0-.405-.091.29.29 0 0 0 .302.494.304.304 0 0 0 .103-.403zm-14.261 28.181a.285.285 0 0 0-.342.214l-.001.005a.277.277 0 0 0 .196.339l.012.003a.303.303 0 0 0 .355-.217.303.303 0 0 0-.22-.344zm1.56-6.749a.285.285 0 0 0-.342.214l-.001.005a.277.277 0 0 0 .196.339l.012.003a.285.285 0 0 0 .342-.208.296.296 0 0 0-.207-.353zm1.56-6.749a.285.285 0 0 0-.342.214l-.001.005a.27.27 0 0 0 .207.341.285.285 0 0 0 .342-.214l.001-.005a.289.289 0 0 0-.207-.341zm1.548-6.751a.298.298 0 0 0-.343.219.288.288 0 0 0 .561.136.304.304 0 0 0-.218-.355zm1.571-6.748a.303.303 0 0 0-.355.217.288.288 0 1 0 .561.129l.001-.005a.297.297 0 0 0-.207-.341zm19.802 1.709a.302.302 0 0 0-.404.072.291.291 0 0 0 .072.404.29.29 0 0 0 .401-.086.291.291 0 0 0-.069-.39zm-5.645-4.014a.287.287 0 0 0-.402.059l-.001.001a.302.302 0 0 0 .072.404.291.291 0 0 0 .404-.072.275.275 0 0 0-.073-.392zm-5.66 26.243a.3.3 0 0 0-.232.339.284.284 0 0 0 .327.231.29.29 0 0 0 .242-.326.297.297 0 0 0-.337-.244zm-1.14-6.834a.3.3 0 0 0-.232.339.284.284 0 0 0 .327.231.275.275 0 0 0 .234-.31l-.003-.017a.292.292 0 0 0-.326-.243zm-1.142-6.822a.275.275 0 0 0-.234.31l.003.017a.283.283 0 0 0 .559-.089l-.001-.007a.275.275 0 0 0-.31-.234l-.017.003zm-1.141-6.833a.29.29 0 0 0-.242.326c.011.061.04.117.082.162l.011.002a.279.279 0 0 0 .245.069.283.283 0 0 0-.096-.559zm17.093 1.856a.17.17 0 1 0-.252.232.17.17 0 0 0 .242.01.178.178 0 0 0 .01-.242zm-2.786-2.982a.17.17 0 1 0-.252.232.17.17 0 0 0 .242.01.178.178 0 0 0 .01-.242zm-2.796-2.994a.164.164 0 0 0-.231-.009.158.158 0 0 0-.01.242c.061.066.164.07.231.009a.16.16 0 0 0 .01-.242zm-2.786-2.982a.179.179 0 0 0-.242-.01.169.169 0 0 0-.004.239l.005.005c.061.066.164.07.231.009a.179.179 0 0 0 .01-.243zm-7.862 14.94a.167.167 0 0 0-.012.334.167.167 0 0 0 .012-.334zm.136-4.084a.161.161 0 0 0-.173.149V174a.167.167 0 0 0 .161.173.176.176 0 0 0 .184-.16.172.172 0 0 0-.169-.175h-.003zm.148-4.082a.161.161 0 0 0-.173.149v.013a.167.167 0 1 0 .173-.162zm.136-4.084a.07.07 0 0 0-.047.005l-.011-.002a.18.18 0 0 0-.115.158.167.167 0 0 0 .161.173.186.186 0 0 0 .167-.116l.006-.045a.161.161 0 0 0-.149-.173h-.012zm15.305-3.734a.157.157 0 0 0-.211.065l-.009.02a.16.16 0 0 0 .073.215l.013.006a.17.17 0 0 0 .22-.085.165.165 0 0 0-.08-.218l-.006-.003zm-7.532 12.552a.162.162 0 0 0-.203-.105l-.015.006a.165.165 0 0 0-.103.209l.003.009a.183.183 0 0 0 .218.1.173.173 0 0 0 .1-.219zm-1.439-3.838a.162.162 0 0 0-.209-.093l-.01.004a.175.175 0 0 0-.1.218.183.183 0 0 0 .218.1.171.171 0 0 0 .105-.219l-.004-.01zm-1.429-3.826a.183.183 0 0 0-.218-.1.17.17 0 0 0-.1.218.162.162 0 0 0 .203.105l.015-.006a.165.165 0 0 0 .103-.209l-.003-.008zm-1.429-3.825a.183.183 0 0 0-.218-.1.172.172 0 0 0-.1.218.162.162 0 0 0 .203.105l.015-.006a.17.17 0 0 0 .1-.217zm-11.429 10.981a.157.157 0 0 0-.211.065l-.009.02a.167.167 0 1 0 .22-.085zm1.697-3.717a.157.157 0 0 0-.211.065l-.009.02a.162.162 0 0 0 .074.219c.087.04.19.002.232-.084a.165.165 0 0 0-.08-.218l-.006-.002zm1.696-3.717a.175.175 0 0 0-.23.072.175.175 0 0 0 .316.148.174.174 0 0 0-.086-.22zm23.336 9.418a.184.184 0 0 0-.253-.062l-.005.003a.187.187 0 0 0-.06.269.184.184 0 0 0 .253.062l.005-.003a.198.198 0 0 0 .06-.269zm-2.516-3.929a.184.184 0 0 0-.253-.062l-.005.003a.197.197 0 0 0-.061.27.197.197 0 0 0 .27.061.189.189 0 0 0 .058-.259l-.009-.013zm-2.505-3.928a.195.195 0 1 0-.332.206l.002.003c-.002.011.01.013.02.026a.208.208 0 0 0 .25.035.198.198 0 0 0 .06-.27zm-2.515-3.929-.039-.052c-.011-.002-.021-.015-.044-.018a.18.18 0 0 0-.187.009.196.196 0 1 0 .27.061zm-11.912 15.144a.211.211 0 0 0-.23.154.19.19 0 0 0 .142.228.18.18 0 0 0 .223-.12l.005-.022a.195.195 0 0 0-.139-.239l-.001-.001zm1.001-4.555a.211.211 0 0 0-.23.154.19.19 0 0 0 .142.228.195.195 0 0 0 .239-.139v-.001a.213.213 0 0 0-.151-.242zm1.001-4.555a.211.211 0 0 0-.23.154.19.19 0 0 0 .142.228.181.181 0 0 0 .23-.154.19.19 0 0 0-.142-.228zm1.001-4.555a.201.201 0 0 0-.23.154.19.19 0 0 0 .142.228.181.181 0 0 0 .23-.154.19.19 0 0 0-.142-.228zm14.004-3.625a.206.206 0 0 0-.274.055.184.184 0 0 0 .056.263.178.178 0 0 0 .251-.031l.01-.014a.206.206 0 0 0-.043-.273zm-7.228 15.213a.189.189 0 0 0-.215-.159l-.007.001-.011-.002a.198.198 0 0 0-.147.223.189.189 0 0 0 .215.159l.007-.001a.26.26 0 0 0 .075-.036.176.176 0 0 0 .083-.185zm-1.046-4.757a.212.212 0 0 0-.16.233c.028.103.13.167.234.148a.187.187 0 0 0 .147-.22l-.001-.003a.191.191 0 0 0-.22-.158zm-.814-4.586a.192.192 0 0 0-.158.221.192.192 0 0 0 .221.158.192.192 0 0 0 .158-.221.19.19 0 0 0-.215-.159l-.006.001zm-.825-4.588a.187.187 0 0 0-.147.221v.002a.18.18 0 0 0 .223.147.193.193 0 0 0 .158-.222.195.195 0 0 0-.233-.148h-.001zm-14.866 10.112a.184.184 0 0 0-.263.056.188.188 0 0 0 .045.261.192.192 0 0 0 .273-.043.2.2 0 0 0-.055-.274zm2.673-3.826a.199.199 0 0 0-.274.055.184.184 0 0 0 .056.263.18.18 0 0 0 .252-.031l.01-.014a.196.196 0 0 0-.044-.273c.001.001.001 0 0 0zm2.674-3.825a.194.194 0 0 0-.269.047l-.005.008a.193.193 0 0 0 .318.218.207.207 0 0 0-.044-.273zm19.11 30.656a.338.338 0 0 0-.284.378c.03.18.2.301.38.273a.343.343 0 0 0 .284-.378.333.333 0 0 0-.38-.273zm-1.248-7.903a.331.331 0 1 0 .108.654.331.331 0 0 0-.108-.654zm-1.236-7.901a.33.33 0 0 0-.286.367.33.33 0 0 0 .367.286l.014-.002a.338.338 0 0 0 .284-.378.33.33 0 0 0-.379-.273zm-1.247-7.903a.327.327 0 0 0-.274.373l.001.007a.33.33 0 0 0 .652-.106v-.001a.327.327 0 0 0-.373-.274l-.006.001zm-1.236-7.901a.329.329 0 0 0 .095.65.338.338 0 0 0 .284-.378.332.332 0 0 0-.379-.272zm-27.522 23.762a.334.334 0 0 0-.399.536.35.35 0 0 0 .474-.073.339.339 0 0 0-.075-.463zm4.708-6.464a.331.331 0 1 0-.387.538.331.331 0 0 0 .387-.538zm4.707-6.464a.324.324 0 0 0-.46.064.35.35 0 0 0 .073.474.336.336 0 0 0 .462-.075.326.326 0 0 0-.066-.456l-.009-.007zm4.708-6.465a.325.325 0 0 0-.456.057l-.005.007a.354.354 0 0 0 .073.474.335.335 0 0 0 .462-.075.317.317 0 0 0-.051-.445c-.007-.007-.015-.012-.023-.018zm4.72-6.474a.336.336 0 0 0-.462.075.334.334 0 0 0 .536.399.35.35 0 0 0-.074-.474zm-1.949 29.492a.325.325 0 0 0-.392.24l-.001.006a.334.334 0 0 0 .234.403.352.352 0 0 0 .405-.245.334.334 0 0 0-.246-.404zm1.875-7.772a.318.318 0 0 0-.389.226l-.005.021a.324.324 0 0 0 .235.392.335.335 0 0 0 .405-.245v-.001a.318.318 0 0 0-.226-.389l-.02-.004zm1.877-7.783a.334.334 0 0 0-.148.652.325.325 0 0 0 .392-.24l.001-.007a.333.333 0 0 0-.245-.405zm1.875-7.772a.33.33 0 0 0-.149.643.329.329 0 0 0 .394-.238.333.333 0 0 0-.245-.405c.001 0 .001 0 0 0zm-.792 25.908a.334.334 0 0 0-.136.653.334.334 0 0 0 .136-.653zm1.545-7.817a.353.353 0 0 0-.397.27.34.34 0 0 0 .26.384.334.334 0 0 0 .395-.258.34.34 0 0 0-.258-.396zm1.533-7.808a.328.328 0 0 0-.124.644.334.334 0 0 0 .395-.258.341.341 0 0 0-.271-.386zm1.545-7.818a.324.324 0 0 0-.382.252l-.001.008a.33.33 0 0 0 .26.384.317.317 0 0 0 .38-.239l.004-.021a.324.324 0 0 0-.252-.382l-.009-.002zm1.546-7.817a.324.324 0 0 0-.382.252l-.001.008c-.027.12.02.244.118.318.023.003.032.016.044.018a.182.182 0 0 0 .098.048.328.328 0 1 0 .123-.644zm7.149 11.315a.342.342 0 0 0-.263.392.328.328 0 0 0 .645-.123l-.002-.008a.325.325 0 0 0-.378-.262l-.002.001zm-1.573-7.808a.337.337 0 0 0-.263.392.334.334 0 0 0 .655-.13.337.337 0 0 0-.392-.262zm-25.02 17.826a.322.322 0 0 0-.446.087l-.008.012a.327.327 0 0 0 .088.453.337.337 0 0 0 .464-.086.332.332 0 0 0-.089-.46l-.009-.006zm4.418-6.631a.322.322 0 0 0-.446.087l-.008.012a.327.327 0 0 0 .088.453.337.337 0 0 0 .464-.086.332.332 0 0 0-.089-.46l-.009-.006zm4.417-6.632a.332.332 0 0 0-.366.552.337.337 0 0 0 .464-.086.332.332 0 0 0-.089-.46l-.009-.006zm4.418-6.632a.342.342 0 0 0-.454.099.327.327 0 0 0 .088.453.34.34 0 0 0 .464-.086.334.334 0 0 0-.095-.463l-.003-.003zm-.02 16.141a.237.237 0 0 0-.33.128.25.25 0 1 0 .33-.128zm2.364-5.526a.247.247 0 0 0-.331.128.25.25 0 1 0 .331-.128zm2.364-5.525a.25.25 0 1 0 .128.331.256.256 0 0 0-.128-.331zm2.364-5.525a.259.259 0 0 0-.332.139.246.246 0 0 0 .141.321.24.24 0 0 0 .316-.122l.003-.008a.247.247 0 0 0-.12-.327l-.008-.003zm5.533 16.04a.247.247 0 0 0-.254.241v.002a.26.26 0 0 0 .243.254.253.253 0 0 0 .254-.243.239.239 0 0 0-.225-.253l-.018-.001zm.066-6.006a.238.238 0 0 0-.242.235v.009a.247.247 0 0 0 .241.254h.002a.265.265 0 0 0 .255-.254.248.248 0 0 0-.252-.244h-.004zm.08-6.015a.264.264 0 0 0-.255.254.238.238 0 0 0 .232.243h.013a.239.239 0 0 0 .253-.225v-.018a.247.247 0 0 0-.241-.254h-.002zm.066-6.006a.242.242 0 0 0-.242.244v.001a.239.239 0 0 0 .225.253h.018a.247.247 0 0 0 .254-.241v-.002a.267.267 0 0 0-.255-.255zm-21.246 9.229a.24.24 0 0 0-.339-.02l-.007.006a.245.245 0 0 0-.017.345l.014.014a.245.245 0 1 0 .349-.345c.001 0 .001 0 0 0zm4.302-4.203a.267.267 0 0 0-.359-.003.254.254 0 0 0 .356.362.267.267 0 0 0 .003-.359zm4.3-4.191a.245.245 0 0 0-.347-.015l-.012.012a.253.253 0 0 0-.002.348.25.25 0 0 0 .361-.345zm8.519.078a.13.13 0 0 0-.178.041l-.002.004a.139.139 0 0 0 .042.191h.001a.132.132 0 0 0 .18-.045.138.138 0 0 0-.043-.191c.001 0 .001 0 0 0zm1.753 9.108a.21.21 0 0 0-.291.059l-.009.015a.204.204 0 0 0 .063.298.224.224 0 0 0 .31-.061.218.218 0 0 0-.073-.311zm-6.025-9.56a.223.223 0 0 0-.361.263c.068.102.206.13.308.062l.009-.006a.232.232 0 0 0 .044-.319z" fill="#fff" opacity=".86"/><path d="M71.46 63.173s13.982-1.284 36.021 7.905 28.882 17.276 41.384 23.031 44.855 14.242 43.447 50.326c0 0-6.715 22.927-76.077 19.151L59.167 74.972c0-.001 8.95-1.317 12.293-11.799z" fill="url(#m)"/><path d="M60.413 79.552s16.677 30.242 20.694 50.223 3.522 27.277-8.39 40.142c-9.298 10.041-18.187 18.624-18.187 18.624l29.008 51.323s18.595-8.182 23.542-24.547c5.563-18.405 13.658-21.37 21.733-26.573s23.051-21.423 10.44-49.865-31.313-54.526-68.178-76.996" fill="#a1c3fc"/><path d="M48.319 64.578s9.79 10.366 12.094 14.973c0 0 3.743.576 8.638-9.79L57.533 55.364z" fill="url(#n)"/><path d="M26.723 30.6s-1.458 10.829-4.895 14.685c-4.875 5.468-3.946 6.045 2.016 8.638 0 0 13.106 22.464 34.847 4.982 0 0 9.497-8.437 8.921-13.332s-2.592-12.382-7.775-13.534-32.25-9.501-33.114-1.439z" fill="#ffbeb6"/><circle cx="65.406" cy="10.389" fill="#428DFC" r="10.389"/><path d="M113.538 46.543a15.279 15.279 0 0 0-11.552-8.389c-6.557-.84-18.502 4.502-22.616-2.387a43.526 43.526 0 0 1-.861-1.992 11.08 11.08 0 0 1-.222-.842.413.413 0 0 0-.233-.304l-.078-.196a24.513 24.513 0 0 0-9.401-11.71c5.697-.208 10.146-4.995 9.938-10.691a9.868 9.868 0 0 0-.057-.769c-.059-.611-1.022-.617-.962 0a9.364 9.364 0 0 1-10.653 10.394c-5.438-3.077-12.854-4.898-22.749-4.536-20.103.731-22.546 16.029-19.928 25.932.26-.664.518-1.257.729-1.95l.029-.077.606-2.204.067-.26 1.424-5.12s9.152 1.732 14.098 7.67 12.126 3.464 14.599 1.732 7.42 1.241 5.187 6.428c-.127.298-.269.616-.417.95-5.224 8.731-2.381 20.045 6.35 25.269a18.446 18.446 0 0 0 4.69 1.986.48.48 0 0 0 .255-.928 17.483 17.483 0 0 1-12.775-14.587c1.495 4.314 5.875 9.098 16.244 13.785l35.376-24.983a14.702 14.702 0 0 0-15.59-7.42C86.86 42.61 83.49 42.4 80.805 38.377a12.88 12.88 0 0 0 7.417 1.961c3.974-.048 7.836-1.448 11.817-1.344a14.365 14.365 0 0 1 12.665 8.036c.29.547 1.121.061.834-.487z" fill="#428DFC"/><path d="M29.637 40.702a4.959 4.959 0 0 1-8.717-.867c-.291-.696.743-1.281 1.037-.575a3.775 3.775 0 0 0 6.66.837c.438-.619 1.462-.019 1.02.605z" fill="#1c2868"/></svg></g><g transform="translate(370.0 289.0) rotate(0.0 54.5 45.0) scale(0.16437447219206178 0.16430253573580153)"><svg width="663.12" height="547.77" viewBox="0 0 663.12 547.77"><path d="M663.12 547.77H0L331.56 0z" fill="#DDD"/></svg></g></svg>