<svg width="25" height="25" viewBox="0 0 25 25" fill="none" xmlns="http://www.w3.org/2000/svg">
<path d="M12.4824 0.500058C12.3766 0.50383 12.2747 0.541102 12.1914 0.606503L2.21091 8.41803L0.691378 9.6065C0.639677 9.64702 0.596464 9.69733 0.564208 9.75455C0.531952 9.81177 0.511284 9.87479 0.503385 9.94C0.495486 10.0052 0.500511 10.0713 0.518172 10.1346C0.535833 10.1979 0.565785 10.257 0.606317 10.3087C0.646848 10.3604 0.697166 10.4036 0.754396 10.4359C0.811625 10.4681 0.874646 10.4888 0.939858 10.4966C1.00507 10.5045 1.0712 10.4995 1.13446 10.4818C1.19772 10.4641 1.25688 10.4342 1.30857 10.3936L1.99997 9.8526V23.0001C1.99998 23.1327 2.05267 23.2598 2.14643 23.3536C2.2402 23.4474 2.36737 23.5 2.49997 23.5001H22.5C22.6326 23.5 22.7597 23.4474 22.8535 23.3536C22.9473 23.2598 23 23.1327 23 23.0001V9.8526L23.6914 10.3936C23.7431 10.4342 23.8022 10.4641 23.8655 10.4818C23.9287 10.4995 23.9949 10.5045 24.0601 10.4966C24.1253 10.4887 24.1883 10.4681 24.2455 10.4358C24.3028 10.4036 24.3531 10.3604 24.3936 10.3087C24.4341 10.257 24.4641 10.1979 24.4818 10.1346C24.4994 10.0713 24.5044 10.0052 24.4965 9.93999C24.4886 9.87479 24.468 9.81177 24.4357 9.75455C24.4035 9.69733 24.3603 9.64702 24.3086 9.6065L22.8164 8.43951L12.8086 0.606503C12.7158 0.533665 12.6003 0.495962 12.4824 0.500058V0.500058ZM12.5 1.63482L22 9.06939V22.5001H2.99997V9.06939L12.5 1.63482ZM11.5 10.0001V13.5001H7.99997V15.5001H11.5V19.0001H13.5V15.5001H17V13.5001H13.5V10.0001H11.5Z" fill="black"/>
</svg>
