<svg width="94" height="94" viewBox="0 0 94 94" fill="none" xmlns="http://www.w3.org/2000/svg">
                <path
                    d="M54.0799 16.7693V37.3677C54.0799 39.1768 52.5482 40.7084 50.7391 40.7084H33.0631L19.9798 47.5276V40.7084H18.8665C17.0574 40.7084 15.5269 39.1768 15.5269 37.3677V16.7693C15.5269 14.9601 17.0574 13.4285 18.8665 13.4285H50.8779C52.687 13.4285 54.0799 14.9601 54.0799 16.7693Z"
                    fill="#FFA959" />
                <path
                    d="M28.1991 27.1516C28.1991 29.1221 26.6021 30.7191 24.6316 30.7191C22.6622 30.7191 21.0652 29.1221 21.0652 27.1516C21.0652 25.1822 22.6622 23.5852 24.6316 23.5852C26.6021 23.5852 28.1991 25.1822 28.1991 27.1516Z"
                    fill="white" />
                <path
                    d="M38.6903 27.1516C38.6903 29.1221 36.9993 30.7191 34.9129 30.7191C32.8277 30.7191 31.1367 29.1221 31.1367 27.1516C31.1367 25.1822 32.8277 23.5852 34.9129 23.5852C36.9993 23.5852 38.6903 25.1822 38.6903 27.1516Z"
                    fill="white" />
                <path
                    d="M48.7616 27.1516C48.7616 29.1221 47.1644 30.7191 45.1946 30.7191C43.2249 30.7191 41.6277 29.1221 41.6277 27.1516C41.6277 25.1822 43.2249 23.5852 45.1946 23.5852C47.1644 23.5852 48.7616 25.1822 48.7616 27.1516Z"
                    fill="white" />
                <path
                    d="M43.78 24.9814V45.4399C43.78 47.2491 45.3106 48.7807 47.1197 48.7807H64.9356L78.0178 55.6009V48.7807H78.9923C80.8014 48.7807 82.333 47.2491 82.333 45.4399V24.9814C82.333 23.1722 80.8014 21.6406 78.9923 21.6406H46.9809C45.1718 21.6406 43.78 23.1722 43.78 24.9814Z"
                    fill="#FFD15C" />
                <path
                    d="M76.8777 35.1248C76.8777 37.0953 75.2807 38.6923 73.3113 38.6923C71.3408 38.6923 69.7438 37.0953 69.7438 35.1248C69.7438 33.1554 71.3408 31.5584 73.3113 31.5584C75.2807 31.5584 76.8777 33.1554 76.8777 35.1248Z"
                    fill="white" />
                <path
                    d="M66.8063 35.1248C66.8063 37.0953 65.1151 38.6923 63.0295 38.6923C60.9439 38.6923 59.2527 37.0953 59.2527 35.1248C59.2527 33.1554 60.9439 31.5584 63.0295 31.5584C65.1151 31.5584 66.8063 33.1554 66.8063 35.1248Z"
                    fill="white" />
                <path
                    d="M56.3152 35.1248C56.3152 37.0953 54.7182 38.6923 52.7477 38.6923C50.7783 38.6923 49.1813 37.0953 49.1813 35.1248C49.1813 33.1554 50.7783 31.5584 52.7477 31.5584C54.7182 31.5584 56.3152 33.1554 56.3152 35.1248Z"
                    fill="white" />
                <path
                    d="M63.9612 49.6153V70.2148C63.9612 72.0239 62.4307 73.5544 60.6205 73.5544H49.6259L44.6148 80.2359L39.6047 73.4157H28.7489C26.9388 73.4157 25.4082 71.8841 25.4082 70.0749V49.6153C25.4082 47.8062 26.9388 46.2756 28.7489 46.2756H60.7592C62.5694 46.2756 63.9612 47.8062 63.9612 49.6153Z"
                    fill="#0061FF" />
                <path
                    d="M58.4135 59.8843C58.4135 61.8541 56.8162 63.4513 54.8465 63.4513C52.8768 63.4513 51.2795 61.8541 51.2795 59.8843C51.2795 57.9146 52.8768 56.3174 54.8465 56.3174C56.8162 56.3174 58.4135 57.9146 58.4135 59.8843Z"
                    fill="white" />
                <path
                    d="M48.3421 59.8843C48.3421 61.8541 46.7451 63.4513 44.7746 63.4513C42.8051 63.4513 41.2081 61.8541 41.2081 59.8843C41.2081 57.9146 42.8051 56.3174 44.7746 56.3174C46.7451 56.3174 48.3421 57.9146 48.3421 59.8843Z"
                    fill="white" />
                <path
                    d="M38.2705 59.8843C38.2705 61.8541 36.5804 63.4513 34.4937 63.4513C32.4081 63.4513 30.7169 61.8541 30.7169 59.8843C30.7169 57.9146 32.4081 56.3174 34.4937 56.3174C36.5804 56.3174 38.2705 57.9146 38.2705 59.8843Z"
                    fill="white" />
            </svg>