<svg width="25" height="25" viewBox="0 0 25 25" fill="none" xmlns="http://www.w3.org/2000/svg">
<g clip-path="url(#clip0_629_327)">
<path d="M9.9375 1.65625C7.5918 1.70898 6.10742 2.6582 5.46875 4.125C4.86133 5.52148 4.98828 7.28125 5.42188 9.10938C5.18945 9.38281 4.99805 9.76758 5.04688 10.3438V10.375C5.13086 10.9844 5.31445 11.4141 5.54688 11.7188C5.66016 11.8672 5.82812 11.8711 5.96875 11.9531C6.05273 12.4941 6.21289 13.0273 6.4375 13.4688C6.56445 13.7188 6.69141 13.9395 6.82812 14.125C6.89062 14.2109 6.98047 14.2578 7.04688 14.3281C7.05273 14.9805 7.07812 15.4785 7 16.1406C6.84961 16.5195 6.47461 16.8223 5.875 17.125C5.24805 17.4414 4.42773 17.7324 3.59375 18.0938C2.75977 18.4551 1.91406 18.8887 1.23438 19.5781C0.554688 20.2676 0.0683595 21.2227 0 22.4688L-0.03125 23H20.0312L20 22.4688C19.9316 21.2227 19.457 20.2695 18.7812 19.5781C18.1055 18.8867 17.2559 18.4551 16.4219 18.0938C15.5879 17.7324 14.7617 17.4434 14.125 17.125C13.5078 16.8164 13.1211 16.502 12.9531 16.1094C12.9141 15.4473 12.9062 14.9395 12.9062 14.3125C12.9648 14.2461 13.0527 14.2031 13.1094 14.125C13.2422 13.9395 13.377 13.7168 13.5 13.4688C13.7168 13.0312 13.8828 12.4941 13.9844 11.9688C14.1445 11.8867 14.3281 11.8809 14.4531 11.7188C14.6934 11.4043 14.834 10.957 14.8906 10.3438C14.9355 9.81445 14.7832 9.42969 14.5469 9.14062C14.8066 8.33984 15.1152 7.05859 15.0156 5.75C14.9609 5.03125 14.7715 4.31445 14.3438 3.71875C13.957 3.17969 13.332 2.81055 12.5469 2.64062C12.0176 1.93359 11.0566 1.65625 9.95312 1.65625H9.9375ZM9.95312 2.65625C9.95898 2.65625 9.96289 2.65625 9.96875 2.65625C10.9668 2.66016 11.6055 2.94141 11.8125 3.29688L11.9375 3.51562L12.1875 3.54688C12.875 3.64258 13.252 3.9082 13.5312 4.29688C13.8105 4.68555 13.9707 5.22852 14.0156 5.82812C14.1074 7.0293 13.7598 8.4375 13.5312 9.07812L13.375 9.5L13.7656 9.70312C13.7617 9.7168 13.9258 9.88281 13.9062 10.25C13.9062 10.2578 13.9062 10.2578 13.9062 10.2656C13.8594 10.7363 13.7383 11.002 13.6562 11.1094C13.5723 11.2188 13.5293 11.2031 13.5469 11.2031H13.1094L13.0625 11.625C12.998 12.0762 12.8145 12.5996 12.6094 13.0156C12.5078 13.2227 12.3887 13.4199 12.2969 13.5469C12.2051 13.6738 12.1152 13.7422 12.1562 13.7188L11.9062 13.8594V14.1562C11.9062 14.9062 11.9023 15.4668 11.9531 16.2812V16.3594L11.9844 16.4219C12.2773 17.1875 12.9414 17.668 13.6719 18.0312C14.4023 18.3945 15.2305 18.6758 16.0156 19.0156C16.8008 19.3555 17.5332 19.7402 18.0625 20.2812C18.4844 20.7129 18.7383 21.2871 18.875 22H1.125C1.26172 21.2871 1.51367 20.7129 1.9375 20.2812C2.46875 19.7402 3.21484 19.3555 4 19.0156C4.78516 18.6758 5.60547 18.3965 6.32812 18.0312C7.05078 17.666 7.70508 17.1797 7.96875 16.4062L8 16.3125C8.10547 15.4648 8.04688 14.8848 8.04688 14.1562V13.8594L7.79688 13.7188C7.83398 13.7402 7.73633 13.6602 7.64062 13.5312C7.54492 13.4023 7.43164 13.2227 7.32812 13.0156C7.11914 12.6035 6.93164 12.0898 6.89062 11.6562L6.85938 11.2031H6.4375C6.41992 11.1953 6.37305 11.1699 6.32812 11.1094C6.24023 10.9941 6.11523 10.7246 6.04688 10.2656C6.04688 10.2559 6.04688 10.2598 6.04688 10.25C6.04492 10.2422 6.04883 10.2422 6.04688 10.2344C6.03906 9.85547 6.27344 9.64453 6.23438 9.67188L6.51562 9.46875L6.4375 9.125C5.97656 7.30273 5.9043 5.65234 6.39062 4.53125C6.87695 3.41406 7.86133 2.70703 9.95312 2.65625ZM16.5 8V9H25V8H16.5ZM15.5 12V13H25V12H15.5ZM16.5 16V17H25V16H16.5Z" fill="black"/>
</g>
<defs>
<clipPath id="clip0_629_327">
<rect width="25" height="25" fill="white"/>
</clipPath>
</defs>
</svg>
