<svg width="25" height="25" viewBox="0 0 25 25" fill="none" xmlns="http://www.w3.org/2000/svg">
<path d="M12.9375 1.70312C10.6016 1.74609 9.10938 2.68945 8.46875 4.15625C7.85742 5.55273 7.99414 7.31641 8.4375 9.14062C8.19922 9.41992 8.00977 9.79492 8.07812 10.3594C8.15234 10.9746 8.32227 11.4121 8.5625 11.7188C8.69531 11.8867 8.86914 11.9023 9.03125 11.9844C9.11914 12.5078 9.26562 13.0312 9.48438 13.4688C9.60938 13.7207 9.75195 13.9531 9.89062 14.1406C9.95312 14.2246 10.043 14.2734 10.1094 14.3438C10.1133 14.9609 10.1152 15.4746 10.0625 16.125C9.90039 16.5176 9.52148 16.834 8.90625 17.1406C8.27148 17.457 7.44531 17.75 6.60938 18.1094C5.77344 18.4688 4.91406 18.9062 4.23438 19.5938C3.55469 20.2812 3.07422 21.2246 3 22.4688L2.96875 23H23.0312L23 22.4688C22.9258 21.2246 22.4434 20.2812 21.7656 19.5938C21.0879 18.9062 20.2383 18.4688 19.4062 18.1094C18.5742 17.75 17.7578 17.457 17.125 17.1406C16.5176 16.8359 16.1348 16.5273 15.9688 16.1406C15.9141 15.4824 15.918 14.9668 15.9219 14.3438C15.9883 14.2715 16.0781 14.2246 16.1406 14.1406C16.2773 13.9512 16.4082 13.7188 16.5312 13.4688C16.7441 13.0312 16.8984 12.5059 16.9844 11.9844C17.1406 11.9023 17.3086 11.8828 17.4375 11.7188C17.6777 11.4121 17.8477 10.9746 17.9219 10.3594C17.9883 9.8125 17.8047 9.45117 17.5781 9.17188C17.8223 8.37891 18.1348 7.09766 18.0312 5.78125C17.9746 5.0625 17.791 4.3457 17.3594 3.75C16.9648 3.20312 16.3242 2.80469 15.5156 2.64062C14.9902 1.95898 14.0449 1.70312 12.9531 1.70312H12.9375ZM12.9531 2.70312C12.959 2.70312 12.9629 2.70312 12.9688 2.70312C13.9746 2.70703 14.627 3.00195 14.8125 3.32812L14.9375 3.53125L15.1719 3.5625C15.8672 3.6582 16.2656 3.93945 16.5469 4.32812C16.8281 4.7168 16.9844 5.25977 17.0312 5.85938C17.125 7.05859 16.7793 8.45508 16.5625 9.10938L16.4375 9.5L16.7812 9.70312C16.7598 9.68945 16.9727 9.83398 16.9219 10.25C16.8633 10.7402 16.7461 10.9941 16.6562 11.1094C16.5664 11.2246 16.5195 11.2188 16.5156 11.2188L16.0938 11.25L16.0469 11.6562C16 12.0879 15.8262 12.6172 15.625 13.0312C15.5234 13.2383 15.4199 13.4199 15.3281 13.5469C15.2363 13.6738 15.1406 13.7441 15.1875 13.7188L14.9219 13.8594V14.1562C14.9219 14.8809 14.8926 15.4746 14.9688 16.3125V16.375L15 16.4375C15.2852 17.2051 15.9453 17.6836 16.6719 18.0469C17.3984 18.4102 18.2324 18.6777 19.0156 19.0156C19.7988 19.3535 20.5156 19.7578 21.0469 20.2969C21.4688 20.7246 21.7344 21.291 21.875 22H4.125C4.26562 21.293 4.5293 20.7246 4.95312 20.2969C5.48633 19.7578 6.21289 19.3535 7 19.0156C7.78711 18.6777 8.61523 18.4102 9.34375 18.0469C10.0723 17.6836 10.7461 17.2051 11.0312 16.4375L11.0625 16.3125C11.1387 15.4746 11.1094 14.8809 11.1094 14.1562V13.8594L10.8438 13.7188C10.8887 13.7422 10.7812 13.6738 10.6875 13.5469C10.5938 13.4199 10.4785 13.2383 10.375 13.0312C10.168 12.6172 9.99805 12.084 9.95312 11.6562L9.90625 11.25L9.48438 11.2188C9.48047 11.2188 9.43359 11.2246 9.34375 11.1094C9.25391 10.9941 9.13672 10.7402 9.07812 10.25C9.0293 9.83398 9.24023 9.68945 9.21875 9.70312L9.54688 9.5L9.45312 9.14062C8.98242 7.32812 8.90039 5.68164 9.39062 4.5625C9.87891 3.44727 10.875 2.74609 12.9531 2.70312Z" fill="black"/>
</svg>
